<?xml version="1.0" encoding="utf-8"?>
<!-- Generator: Adobe Illustrator 25.1.0, SVG Export Plug-In . SVG Version: 6.00 Build 0)  -->
<svg version="1.1" id="Layer_1" xmlns="http://www.w3.org/2000/svg" xmlns:xlink="http://www.w3.org/1999/xlink" x="0px" y="0px"
	 viewBox="0 0 509.5 421.48" style="enable-background:new 0 0 509.5 421.48;" xml:space="preserve">
<style type="text/css">
	.st0{fill:url(#SVGID_1_);}
	.st1{fill:url(#SVGID_2_);}
	.st2{fill:url(#SVGID_3_);}
	.st3{fill:url(#SVGID_4_);}
	.st4{fill:url(#SVGID_5_);}
	.st5{fill:url(#SVGID_6_);}
	.st6{fill:url(#SVGID_7_);}
	.st7{fill:url(#SVGID_8_);}
	.st8{fill:url(#SVGID_9_);}
	.st9{fill:url(#SVGID_10_);}
	.st10{fill:url(#SVGID_11_);}
	.st11{fill:url(#SVGID_12_);}
	.st12{fill:url(#SVGID_13_);}
	.st13{fill:url(#SVGID_14_);}
	.st14{fill:url(#SVGID_15_);}
	.st15{fill:url(#SVGID_16_);}
	.st16{fill:url(#SVGID_17_);}
	.st17{fill:url(#SVGID_18_);}
	.st18{fill:url(#SVGID_19_);}
	.st19{fill:url(#SVGID_20_);}
	.st20{fill:url(#SVGID_21_);}
	.st21{fill:url(#SVGID_22_);}
	.st22{fill:url(#SVGID_23_);}
	.st23{fill:url(#SVGID_24_);}
	.st24{fill:url(#SVGID_25_);}
</style>
<g>
	<linearGradient id="SVGID_1_" gradientUnits="userSpaceOnUse" x1="164.0777" y1="331.2695" x2="414.9305" y2="331.2695">
		<stop  offset="5.862826e-03" style="stop-color:#27A8E0"/>
		<stop  offset="0.4972" style="stop-color:#00AEEF"/>
		<stop  offset="1" style="stop-color:#1C75BC"/>
	</linearGradient>
	<path class="st0" d="M164.08,331.87c33.41,6.69,70.35-10.81,95.1-14.04c48.84-7.82,70.22,11.28,95.42,20.06
		c16.91,5.16,41.17,4.92,60.34-4.99c-10.01,9.51-34.95,17.03-61.53,12.11c-24.81-4.81-45.17-26.34-95.76-18.25
		C230.64,331.19,191.42,343.42,164.08,331.87z"/>
	<linearGradient id="SVGID_2_" gradientUnits="userSpaceOnUse" x1="105.9781" y1="336.9051" x2="282.7631" y2="336.9051">
		<stop  offset="5.862826e-03" style="stop-color:#27A8E0"/>
		<stop  offset="0.4972" style="stop-color:#00AEEF"/>
		<stop  offset="1" style="stop-color:#1C75BC"/>
	</linearGradient>
	<path class="st1" d="M105.98,324.63c28.11,9.94,59.2,18.36,91.92,17.07c23.23-1.04,63.52-7.09,84.87-12.03
		c-16.1,8.37-53.58,18-87.28,19.52C159.43,349.15,128.66,340.2,105.98,324.63z"/>
</g>
<g>
	<g>
		<linearGradient id="SVGID_3_" gradientUnits="userSpaceOnUse" x1="179.4337" y1="157.4444" x2="307.3704" y2="157.4444">
			<stop  offset="5.862826e-03" style="stop-color:#27A8E0"/>
			<stop  offset="0.4972" style="stop-color:#00AEEF"/>
			<stop  offset="1" style="stop-color:#1C75BC"/>
		</linearGradient>
		<path class="st2" d="M305.37,170.38l-30.52,0.68c-10.22,0.26-20.57,0.41-30.91,0.61c-10.37,0.14-20.76,0.35-31.19,0.42
			c-10.43,0.08-20.87,0.22-31.31,0.22l-1.93,0l0-1.93l-0.06-25.81l0-2l2,0l30.98,0.08l30.98,0.22l30.98,0.39
			c10.33,0.17,20.66,0.35,30.98,0.62l0.72,0.02l-0.02,0.68L305.37,170.38z M305.37,170.38l-0.7-25.81l0.7,0.7
			c-10.33,0.28-20.66,0.45-30.98,0.62l-30.98,0.39l-30.98,0.22l-30.98,0.08l2-2l-0.06,25.81l-1.93-1.93
			c10.21,0,20.43,0.14,30.66,0.22c10.22,0.08,20.49,0.28,30.78,0.42c10.31,0.2,20.62,0.35,31.06,0.61L305.37,170.38z"/>
	</g>
	<g>
		<linearGradient id="SVGID_4_" gradientUnits="userSpaceOnUse" x1="179.4347" y1="196.5453" x2="341.4684" y2="196.5453">
			<stop  offset="5.862826e-03" style="stop-color:#27A8E0"/>
			<stop  offset="0.4972" style="stop-color:#00AEEF"/>
			<stop  offset="1" style="stop-color:#1C75BC"/>
		</linearGradient>
		<path class="st3" d="M339.47,212.44l-39.04,0.68l-39.44,0.61c-13.21,0.14-26.44,0.35-39.72,0.42
			c-13.27,0.09-26.55,0.22-39.84,0.22l-1.93,0l0-1.94l-0.06-31.72l0-2l2,0l39.51,0.08l39.51,0.22l39.51,0.39
			c13.17,0.17,26.34,0.35,39.51,0.63l0.7,0.01l-0.01,0.67L339.47,212.44z M339.47,212.44l-0.68-31.72l0.68,0.68
			c-13.17,0.28-26.34,0.46-39.51,0.63l-39.51,0.39l-39.51,0.22l-39.51,0.08l2-2l-0.06,31.72l-1.94-1.94
			c13.05,0,26.11,0.13,39.18,0.22c13.06,0.07,26.17,0.28,39.3,0.42l39.58,0.61L339.47,212.44z"/>
	</g>
	<g>
		<linearGradient id="SVGID_5_" gradientUnits="userSpaceOnUse" x1="179.4323" y1="121.3043" x2="275.7505" y2="121.3043">
			<stop  offset="5.862826e-03" style="stop-color:#27A8E0"/>
			<stop  offset="0.4972" style="stop-color:#00AEEF"/>
			<stop  offset="1" style="stop-color:#1C75BC"/>
		</linearGradient>
		<path class="st4" d="M273.76,134.24l-22.63,0.66l-23.01,0.58l-23.28,0.43l-23.4,0.24l-1.91,0.02l-0.01-1.94l-0.08-25.81
			l-0.01-2.01l2.01,0.01l23.08,0.07l23.08,0.19c7.69,0.06,15.39,0.23,23.08,0.34c7.69,0.16,15.39,0.31,23.08,0.52l0.9,0.03
			l-0.02,0.85c-0.12,4.4-0.25,8.79-0.42,13.09L273.76,134.24z M273.76,134.24l-0.45-13.09c-0.17-4.3-0.3-8.52-0.42-12.71l0.88,0.88
			c-7.69,0.22-15.39,0.37-23.08,0.52c-7.69,0.11-15.39,0.27-23.08,0.34l-23.08,0.19l-23.08,0.07l2-2l-0.08,25.81l-1.92-1.92
			l22.76,0.24l22.88,0.43l23.15,0.58L273.76,134.24z"/>
	</g>
	<g>
		<linearGradient id="SVGID_6_" gradientUnits="userSpaceOnUse" x1="179.43" y1="85.124" x2="243.7691" y2="85.124">
			<stop  offset="5.862826e-03" style="stop-color:#27A8E0"/>
			<stop  offset="0.4972" style="stop-color:#00AEEF"/>
			<stop  offset="1" style="stop-color:#1C75BC"/>
		</linearGradient>
		<path class="st5" d="M241.78,98.1c-9.64,0.41-19.58,0.83-29.69,1.15c-5.04,0.19-10.15,0.29-15.26,0.43
			c-5.11,0.15-10.25,0.18-15.38,0.26l-1.8,0.03l-0.03-1.86c-0.07-4.3-0.1-8.6-0.11-12.9l-0.06-12.9l-0.01-2.01l2.01,0.01l15.08,0.06
			c5.03,0,10.06,0.09,15.08,0.16c5.03,0.05,10.06,0.15,15.08,0.27c5.03,0.09,10.06,0.24,15.08,0.4l1.14,0.04l-0.03,1.08
			c-0.11,4.44-0.33,8.83-0.51,13.15L241.78,98.1z M241.78,98.1l-0.6-13.15c-0.18-4.28-0.4-8.49-0.51-12.65l1.11,1.11
			c-5.03,0.16-10.06,0.3-15.08,0.4c-5.03,0.12-10.06,0.22-15.08,0.27c-5.03,0.06-10.06,0.15-15.08,0.16l-15.08,0.06l2-2l-0.06,12.9
			c-0.01,4.3-0.04,8.6-0.11,12.9l-1.83-1.83c4.92,0.08,9.84,0.11,14.78,0.26c4.95,0.14,9.9,0.24,14.91,0.43
			C221.13,97.27,231.31,97.69,241.78,98.1z"/>
	</g>
</g>
<g>
	<linearGradient id="SVGID_7_" gradientUnits="userSpaceOnUse" x1="193.4919" y1="231.6916" x2="218.454" y2="256.6537">
		<stop  offset="5.862826e-03" style="stop-color:#27A8E0"/>
		<stop  offset="0.4" style="stop-color:#00AEEF"/>
		<stop  offset="1" style="stop-color:#1C75BC"/>
	</linearGradient>
	<path class="st6" d="M219.94,255.17l-0.18,0.18c-0.08,0-0.31-0.01-0.69-0.02c-1.65-0.06-2.68-0.09-3.08-0.09
		c-0.61,0-1.59,0.04-2.92,0.11c-0.05-0.29-0.28-0.77-0.69-1.44l-4.47-7.47l-2-3.05c-0.25-0.37-0.61-0.74-1.06-1.1l0.2-0.61
		c0.28,0.01,0.48,0.02,0.61,0.02c1.18,0,2.1-0.19,2.78-0.56c0.61-0.34,1.18-0.93,1.7-1.77c0.52-0.84,0.78-1.85,0.78-3.01
		c0-2.03-0.76-3.4-2.27-4.11c-0.72-0.34-1.77-0.51-3.16-0.51c-0.6,0-1.18,0.05-1.73,0.14c-0.12,1.18-0.18,3.19-0.18,6.03v9.44
		c0,2.86,0.08,4.73,0.23,5.59c0.06,0.35,0.26,0.57,0.61,0.67c0.18,0.05,0.88,0.11,2.11,0.18l0.18,0.18v1.21l-0.16,0.18
		c-1.2-0.07-3.06-0.11-5.56-0.11c-2.59,0-4.44,0.04-5.56,0.11l-0.18-0.16v-1.23l0.18-0.18c1.23-0.07,1.93-0.13,2.11-0.18
		c0.35-0.1,0.55-0.32,0.61-0.67c0.16-0.87,0.23-2.73,0.23-5.59v-9.55c0-2.86-0.08-4.73-0.23-5.59c-0.06-0.35-0.27-0.57-0.61-0.67
		c-0.18-0.05-0.88-0.11-2.11-0.18l-0.18-0.18v-1.23l0.18-0.16c1.18,0.07,3.03,0.11,5.56,0.11c1.47,0,2.66-0.02,3.57-0.05
		c1.82-0.07,3.18-0.11,4.08-0.11c2.08,0,3.61,0.19,4.58,0.56c1.31,0.51,2.19,1.36,2.63,2.56c0.22,0.59,0.33,1.29,0.33,2.09
		c0,3.27-1.84,5.59-5.52,6.96c0.6,1.01,1.24,2.03,1.91,3.07l2.78,4.28c1.64,2.53,2.72,3.96,3.27,4.31c0.28,0.18,0.66,0.27,1.15,0.27
		l0.18,0.18V255.17z"/>
	<linearGradient id="SVGID_8_" gradientUnits="userSpaceOnUse" x1="226.5838" y1="232.7689" x2="246.2143" y2="252.3994">
		<stop  offset="5.862826e-03" style="stop-color:#27A8E0"/>
		<stop  offset="0.4" style="stop-color:#00AEEF"/>
		<stop  offset="1" style="stop-color:#1C75BC"/>
	</linearGradient>
	<path class="st7" d="M250.14,241.91c0,4.44-1.29,7.92-3.88,10.45c-2.51,2.45-5.95,3.68-10.3,3.68c-4.11,0-7.34-1.16-9.69-3.47
		c-2.35-2.31-3.52-5.54-3.52-9.66c0-5.79,2.21-9.79,6.62-12.02c2.01-1.01,4.48-1.52,7.42-1.52c4.2,0,7.46,1.1,9.8,3.3
		C248.95,234.91,250.14,237.99,250.14,241.91z M244.58,242.85c0-3.49-0.7-6.26-2.1-8.31c-1.4-2.05-3.46-3.08-6.16-3.08
		c-3.57,0-5.94,1.61-7.11,4.82c-0.6,1.65-0.9,3.49-0.9,5.54c0,3.72,0.69,6.65,2.06,8.81c1.42,2.23,3.54,3.34,6.37,3.34
		c3.43,0,5.73-1.69,6.91-5.07C244.27,247.1,244.58,245.08,244.58,242.85z"/>
	<linearGradient id="SVGID_9_" gradientUnits="userSpaceOnUse" x1="254.7901" y1="229.0063" x2="276.1974" y2="250.4136">
		<stop  offset="5.862826e-03" style="stop-color:#27A8E0"/>
		<stop  offset="0.4" style="stop-color:#00AEEF"/>
		<stop  offset="1" style="stop-color:#1C75BC"/>
	</linearGradient>
	<path class="st8" d="M276.77,230.63c-1.9,2.59-3.98,5.76-6.24,9.51c-1.28,2.12-1.98,3.47-2.11,4.06c-0.07,0.31-0.11,0.76-0.11,1.35
		v1.79c0,3.52,0.11,5.48,0.33,5.88c0.1,0.17,0.23,0.28,0.42,0.32c0.3,0.08,1.04,0.16,2.22,0.23l0.18,0.18v1.21l-0.18,0.18
		c-1.19-0.07-3.04-0.11-5.56-0.11c-2.57,0-4.43,0.04-5.56,0.11l-0.16-0.16v-1.23l0.18-0.18c1.18-0.07,1.92-0.15,2.22-0.23
		c0.18-0.05,0.32-0.16,0.42-0.32c0.22-0.4,0.32-2.36,0.32-5.88v-2.13c0-0.46-0.94-2.28-2.83-5.48c-1.92-3.26-3.46-5.47-4.6-6.64
		c-0.55-0.56-0.93-0.89-1.12-0.96c-0.19-0.08-0.64-0.12-1.35-0.12l-0.2-0.2v-1.01l0.18-0.2c2.93-0.58,4.82-0.99,5.65-1.23
		c0.62,0.3,1.18,0.69,1.68,1.17c1.02,1,2.39,3.22,4.11,6.68l2.36,4.73c0.71-1.14,2.06-3.44,4.06-6.89l2-3.59
		c0.22-0.4,0.51-0.94,0.88-1.64h2.63l0.18,0.18V230.63z"/>
	<linearGradient id="SVGID_10_" gradientUnits="userSpaceOnUse" x1="278.4208" y1="238.3878" x2="298.6913" y2="258.6583">
		<stop  offset="5.862826e-03" style="stop-color:#27A8E0"/>
		<stop  offset="0.4" style="stop-color:#00AEEF"/>
		<stop  offset="1" style="stop-color:#1C75BC"/>
	</linearGradient>
	<path class="st9" d="M302.16,255.17l-0.16,0.18c-2.67-0.07-4.28-0.11-4.84-0.11c-2.21,0-4.27,0.04-6.17,0.11l-0.16-0.18v-1.14
		l0.18-0.2l1.57-0.09c0.66-0.04,0.99-0.27,0.99-0.7c0-0.25-0.17-0.82-0.51-1.7l-1.46-3.81c-1.66-0.02-3.36-0.04-5.09-0.04
		c-0.94,0-2.33,0.01-4.19,0.04l-0.79,2.2c-0.6,1.67-0.9,2.72-0.9,3.14c0,0.46,0.28,0.73,0.85,0.81c0.31,0.05,0.93,0.1,1.84,0.14
		l0.18,0.18v1.15l-0.18,0.18c-2.23-0.07-3.66-0.11-4.29-0.11c-0.49,0-1.71,0.04-3.66,0.11l-0.18-0.16v-1.17l0.2-0.18
		c1.24-0.07,2-0.32,2.28-0.74c0.28-0.42,1.34-2.93,3.18-7.52l4.71-11.78c0.35-0.91,0.88-2.29,1.59-4.13h2.56l9.56,22.5
		c0.37,0.85,0.71,1.33,1.01,1.44c0.4,0.14,0.97,0.22,1.71,0.22l0.16,0.2V255.17z M290.73,245.46l-3.86-9.45l-3.7,9.45
		c0.99,0.04,2.27,0.05,3.84,0.05C288.54,245.51,289.78,245.5,290.73,245.46z"/>
	<linearGradient id="SVGID_11_" gradientUnits="userSpaceOnUse" x1="301.6911" y1="233.0473" x2="324.0371" y2="255.3934">
		<stop  offset="5.862826e-03" style="stop-color:#27A8E0"/>
		<stop  offset="0.4" style="stop-color:#00AEEF"/>
		<stop  offset="1" style="stop-color:#1C75BC"/>
	</linearGradient>
	<path class="st10" d="M324.66,249.21c-0.26,1.76-0.4,3.74-0.4,5.95l-0.18,0.18l-13.12-0.11c-2.19,0-3.73,0.04-4.64,0.11l-0.18-0.18
		v-0.51l0.09-0.22c0.89-0.57,1.37-0.92,1.44-1.06c0.11-0.22,0.17-1.02,0.2-2.4l0.05-4.04v-9.15c0-2.86-0.08-4.73-0.23-5.59
		c-0.06-0.35-0.27-0.57-0.61-0.67c-0.18-0.05-0.88-0.11-2.11-0.18l-0.18-0.18v-1.23l0.18-0.16c1.24,0.07,3.05,0.11,5.45,0.11
		c2.48,0,4.36-0.04,5.65-0.11l0.18,0.16v1.25l-0.18,0.16c-1.23,0.07-1.93,0.13-2.11,0.18c-0.35,0.1-0.55,0.32-0.61,0.67
		c-0.16,0.87-0.23,2.73-0.23,5.59v10.79c0,1.58,0.03,3.1,0.09,4.58h2.45c3.51,0,5.67-0.14,6.46-0.41c0.13-0.05,0.23-0.11,0.29-0.2
		c0.12-0.17,0.23-0.53,0.34-1.08l0.43-2.24l0.18-0.2h1.1L324.66,249.21z"/>
	<linearGradient id="SVGID_12_" gradientUnits="userSpaceOnUse" x1="76.7292" y1="278.5062" x2="94.0947" y2="295.8716">
		<stop  offset="5.862826e-03" style="stop-color:#27A8E0"/>
		<stop  offset="0.4" style="stop-color:#00AEEF"/>
		<stop  offset="1" style="stop-color:#1C75BC"/>
	</linearGradient>
	<path class="st11" d="M95.03,291.25c0,1.98-0.57,3.74-1.7,5.25c-0.99,1.33-2.28,2.33-3.88,2.98c-1.47,0.6-3.22,0.9-5.25,0.9
		c-2.53,0-5-0.58-7.43-1.73l-0.22-0.4c0.34-1.38,0.51-3.35,0.51-5.9l0.18-0.18h1.15l0.16,0.18v0.41c0,0.67,0.07,1.56,0.22,2.67
		c0.43,0.77,1.21,1.43,2.33,1.98c1.17,0.58,2.38,0.87,3.64,0.87c2.38,0,4.03-0.83,4.94-2.49c0.47-0.85,0.7-1.74,0.7-2.65
		c0-1.54-0.64-2.64-1.93-3.3c-0.64-0.33-1.67-0.6-3.09-0.81c-3.21-0.49-5.32-1.11-6.33-1.86c-1.53-1.13-2.29-2.88-2.29-5.25
		c0-2.47,0.83-4.43,2.49-5.9c1.76-1.54,4.2-2.31,7.33-2.31c2.81,0,5.09,0.45,6.82,1.35l0.13,0.43c-0.29,1.43-0.46,3.15-0.52,5.16
		l-0.2,0.18h-1.14l-0.18-0.18c-0.04-1.44-0.1-2.38-0.18-2.81c-0.37-0.57-1.02-1.05-1.95-1.44c-0.99-0.41-2.01-0.61-3.08-0.61
		c-1.61,0-2.89,0.43-3.83,1.28c-0.88,0.81-1.32,1.85-1.32,3.12c0,1.38,0.5,2.4,1.5,3.05c0.65,0.42,2.18,0.82,4.6,1.21
		c0.25,0.04,0.96,0.16,2.11,0.36c0.71,0.12,1.36,0.29,1.97,0.52c1.21,0.46,2.13,1.15,2.74,2.09
		C94.69,288.44,95.03,289.72,95.03,291.25z"/>
	<linearGradient id="SVGID_13_" gradientUnits="userSpaceOnUse" x1="99.5099" y1="273.4777" x2="126.3576" y2="300.3254">
		<stop  offset="5.862826e-03" style="stop-color:#27A8E0"/>
		<stop  offset="0.4" style="stop-color:#00AEEF"/>
		<stop  offset="1" style="stop-color:#1C75BC"/>
	</linearGradient>
	<path class="st12" d="M127.17,299.51l-0.18,0.18c-1.19-0.07-3.04-0.11-5.56-0.11c-2.57,0-4.43,0.04-5.56,0.11l-0.18-0.16v-1.23
		l0.2-0.18c1.23-0.07,1.93-0.13,2.11-0.18c0.35-0.1,0.55-0.32,0.61-0.67c0.16-0.87,0.23-2.73,0.23-5.59v-4.35
		c-0.61-0.06-2.56-0.09-5.85-0.09c-3.03,0-5.03,0.03-5.99,0.09v4.35c0,2.86,0.08,4.73,0.23,5.59c0.06,0.35,0.26,0.57,0.61,0.67
		c0.18,0.05,0.88,0.11,2.11,0.18l0.18,0.18v1.21l-0.16,0.18c-1.2-0.07-3.06-0.11-5.56-0.11c-2.59,0-4.44,0.04-5.56,0.11l-0.18-0.16
		v-1.23l0.18-0.18c1.23-0.07,1.93-0.13,2.11-0.18c0.35-0.1,0.55-0.32,0.61-0.67c0.16-0.87,0.23-2.73,0.23-5.59v-9.55
		c0-2.86-0.08-4.73-0.23-5.59c-0.06-0.35-0.27-0.57-0.61-0.67c-0.18-0.05-0.88-0.11-2.11-0.18l-0.18-0.18v-1.23l0.18-0.16
		c1.15,0.07,3.01,0.11,5.56,0.11c2.61,0,4.46-0.04,5.56-0.11l0.16,0.16v1.25l-0.18,0.16c-1.23,0.07-1.93,0.13-2.11,0.18
		c-0.35,0.1-0.55,0.32-0.61,0.67c-0.16,0.87-0.23,2.73-0.23,5.59v2.98c1.27,0.06,3.03,0.09,5.27,0.09c3.51,0,5.7-0.03,6.57-0.09
		v-2.98c0-2.86-0.08-4.73-0.23-5.59c-0.06-0.35-0.26-0.57-0.61-0.67c-0.18-0.05-0.88-0.11-2.11-0.18l-0.2-0.18v-1.23l0.18-0.16
		c1.17,0.07,3.02,0.11,5.56,0.11c2.62,0,4.47-0.04,5.56-0.11l0.18,0.16v1.25l-0.16,0.16c-1.25,0.07-1.96,0.13-2.13,0.18
		c-0.35,0.1-0.55,0.32-0.61,0.67c-0.16,0.87-0.23,2.73-0.23,5.59v9.55c0,2.86,0.08,4.73,0.23,5.59c0.06,0.35,0.26,0.57,0.61,0.67
		c0.18,0.05,0.88,0.11,2.11,0.18l0.18,0.18V299.51z"/>
	<linearGradient id="SVGID_14_" gradientUnits="userSpaceOnUse" x1="134.449" y1="277.1103" x2="154.0795" y2="296.7408">
		<stop  offset="5.862826e-03" style="stop-color:#27A8E0"/>
		<stop  offset="0.4" style="stop-color:#00AEEF"/>
		<stop  offset="1" style="stop-color:#1C75BC"/>
	</linearGradient>
	<path class="st13" d="M158,286.25c0,4.44-1.29,7.92-3.88,10.45c-2.51,2.45-5.95,3.68-10.3,3.68c-4.11,0-7.34-1.16-9.69-3.47
		c-2.35-2.31-3.52-5.54-3.52-9.66c0-5.79,2.21-9.79,6.62-12.02c2.01-1.01,4.48-1.52,7.42-1.52c4.2,0,7.46,1.1,9.8,3.3
		C156.82,279.25,158,282.33,158,286.25z M152.45,287.19c0-3.49-0.7-6.26-2.1-8.31c-1.4-2.05-3.46-3.08-6.16-3.08
		c-3.57,0-5.94,1.61-7.11,4.82c-0.6,1.65-0.9,3.49-0.9,5.54c0,3.72,0.69,6.65,2.06,8.81c1.42,2.23,3.54,3.34,6.37,3.34
		c3.43,0,5.73-1.69,6.91-5.07C152.13,291.44,152.45,289.42,152.45,287.19z"/>
	<linearGradient id="SVGID_15_" gradientUnits="userSpaceOnUse" x1="159.6976" y1="276.0331" x2="184.6597" y2="300.9952">
		<stop  offset="5.862826e-03" style="stop-color:#27A8E0"/>
		<stop  offset="0.4" style="stop-color:#00AEEF"/>
		<stop  offset="1" style="stop-color:#1C75BC"/>
	</linearGradient>
	<path class="st14" d="M186.15,299.51l-0.18,0.18c-0.08,0-0.31-0.01-0.69-0.02c-1.65-0.06-2.68-0.09-3.08-0.09
		c-0.61,0-1.59,0.04-2.92,0.11c-0.05-0.29-0.28-0.77-0.69-1.44l-4.47-7.47l-2-3.05c-0.25-0.37-0.61-0.74-1.06-1.1l0.2-0.61
		c0.28,0.01,0.48,0.02,0.61,0.02c1.18,0,2.1-0.19,2.78-0.56c0.61-0.34,1.18-0.93,1.7-1.77c0.52-0.84,0.78-1.85,0.78-3.01
		c0-2.03-0.76-3.4-2.27-4.11c-0.72-0.34-1.77-0.51-3.16-0.51c-0.6,0-1.18,0.05-1.73,0.14c-0.12,1.18-0.18,3.19-0.18,6.03v9.44
		c0,2.86,0.08,4.73,0.23,5.59c0.06,0.35,0.26,0.57,0.61,0.67c0.18,0.05,0.88,0.11,2.11,0.18l0.18,0.18v1.21l-0.16,0.18
		c-1.2-0.07-3.06-0.11-5.56-0.11c-2.59,0-4.44,0.04-5.56,0.11l-0.18-0.16v-1.23l0.18-0.18c1.23-0.07,1.93-0.13,2.11-0.18
		c0.35-0.1,0.55-0.32,0.61-0.67c0.16-0.87,0.23-2.73,0.23-5.59v-9.55c0-2.86-0.08-4.73-0.23-5.59c-0.06-0.35-0.27-0.57-0.61-0.67
		c-0.18-0.05-0.88-0.11-2.11-0.18l-0.18-0.18v-1.23l0.18-0.16c1.18,0.07,3.03,0.11,5.56,0.11c1.47,0,2.66-0.02,3.57-0.05
		c1.82-0.07,3.18-0.11,4.08-0.11c2.08,0,3.61,0.19,4.58,0.56c1.31,0.51,2.19,1.36,2.63,2.56c0.22,0.59,0.33,1.29,0.33,2.09
		c0,3.27-1.84,5.59-5.52,6.96c0.6,1.01,1.24,2.03,1.91,3.07l2.78,4.28c1.64,2.53,2.72,3.96,3.27,4.31c0.28,0.18,0.66,0.27,1.15,0.27
		l0.18,0.18V299.51z"/>
	<linearGradient id="SVGID_16_" gradientUnits="userSpaceOnUse" x1="187.1779" y1="275.5216" x2="209.5239" y2="297.8676">
		<stop  offset="5.862826e-03" style="stop-color:#27A8E0"/>
		<stop  offset="0.4" style="stop-color:#00AEEF"/>
		<stop  offset="1" style="stop-color:#1C75BC"/>
	</linearGradient>
	<path class="st15" d="M208.28,293.55c-0.26,1.76-0.4,3.74-0.4,5.95l-0.18,0.18l-13.12-0.11c-2.19,0-3.73,0.04-4.64,0.11l-0.18-0.18
		V299l0.09-0.22c0.89-0.57,1.37-0.92,1.44-1.06c0.11-0.23,0.17-1.03,0.2-2.4l0.05-4.04v-9.15c0-2.86-0.08-4.73-0.23-5.59
		c-0.06-0.35-0.27-0.57-0.61-0.67c-0.18-0.05-0.88-0.11-2.11-0.18l-0.18-0.18v-1.23l0.18-0.16c1.21,0.07,3.09,0.11,5.63,0.11
		c2.26,0,6.56-0.04,12.9-0.11l0.2,0.14l-0.23,2c-0.07,0.64-0.13,1.18-0.16,1.62l-0.13,1.68l-0.18,0.2h-1.05l-0.18-0.18
		c-0.01-1.64-0.11-2.57-0.29-2.8c-0.13-0.17-0.78-0.3-1.94-0.4c-1.16-0.1-2.18-0.14-3.06-0.14c-1.05,0-2.1,0.04-3.18,0.13
		c-0.13,1.26-0.2,3.01-0.2,5.25v3.73c0.95,0.06,1.72,0.09,2.31,0.09l2.36-0.02c1.11-0.01,1.73-0.1,1.88-0.27
		c0.19-0.22,0.32-1.03,0.38-2.44l0.18-0.18h1.12l0.18,0.18c-0.05,1.35-0.07,2.58-0.07,3.7c0,1.21,0.02,2.54,0.07,3.99l-0.18,0.16
		h-1.21l-0.18-0.18c0-1.38-0.1-2.2-0.29-2.46c-0.19-0.26-0.78-0.43-1.75-0.51c-0.73-0.06-1.52-0.09-2.35-0.09
		c-0.88,0-1.7,0.03-2.45,0.09v5.5c0,1.58,0.03,3.1,0.09,4.58h2.45c3.51,0,5.67-0.14,6.46-0.41c0.13-0.05,0.23-0.11,0.29-0.2
		c0.12-0.17,0.23-0.53,0.34-1.08l0.43-2.24l0.18-0.2h1.1L208.28,293.55z"/>
	<linearGradient id="SVGID_17_" gradientUnits="userSpaceOnUse" x1="208.2928" y1="277.3888" x2="230.6388" y2="299.7348">
		<stop  offset="5.862826e-03" style="stop-color:#27A8E0"/>
		<stop  offset="0.4" style="stop-color:#00AEEF"/>
		<stop  offset="1" style="stop-color:#1C75BC"/>
	</linearGradient>
	<path class="st16" d="M231.26,293.55c-0.26,1.76-0.4,3.74-0.4,5.95l-0.18,0.18l-13.12-0.11c-2.19,0-3.73,0.04-4.64,0.11l-0.18-0.18
		V299l0.09-0.22c0.89-0.57,1.37-0.92,1.44-1.06c0.11-0.22,0.17-1.02,0.2-2.4l0.05-4.04v-9.15c0-2.86-0.08-4.73-0.23-5.59
		c-0.06-0.35-0.27-0.57-0.61-0.67c-0.18-0.05-0.88-0.11-2.11-0.18l-0.18-0.18v-1.23l0.18-0.16c1.24,0.07,3.05,0.11,5.45,0.11
		c2.48,0,4.36-0.04,5.65-0.11l0.18,0.16v1.25l-0.18,0.16c-1.23,0.07-1.93,0.13-2.11,0.18c-0.35,0.1-0.55,0.32-0.61,0.67
		c-0.16,0.87-0.23,2.73-0.23,5.59v10.79c0,1.58,0.03,3.1,0.09,4.58h2.45c3.51,0,5.67-0.14,6.46-0.41c0.13-0.05,0.23-0.11,0.29-0.2
		c0.12-0.17,0.23-0.53,0.34-1.08l0.43-2.24l0.18-0.2h1.1L231.26,293.55z"/>
	<linearGradient id="SVGID_18_" gradientUnits="userSpaceOnUse" x1="231.2391" y1="277.7314" x2="249.5885" y2="296.0808">
		<stop  offset="5.862826e-03" style="stop-color:#27A8E0"/>
		<stop  offset="0.4" style="stop-color:#00AEEF"/>
		<stop  offset="1" style="stop-color:#1C75BC"/>
	</linearGradient>
	<path class="st17" d="M246.14,299.51l-0.16,0.18c-1.2-0.07-3.06-0.11-5.58-0.11c-2.5,0-4.35,0.04-5.56,0.11l-0.16-0.18v-1.21
		l0.18-0.18c1.23-0.07,1.93-0.13,2.11-0.18c0.35-0.1,0.55-0.32,0.61-0.67c0.16-0.87,0.23-2.73,0.23-5.59v-9.55
		c0-2.86-0.08-4.73-0.23-5.59c-0.06-0.35-0.26-0.57-0.61-0.67c-0.18-0.05-0.88-0.11-2.11-0.18l-0.18-0.18v-1.23l0.18-0.16
		c1.15,0.07,3.01,0.11,5.56,0.11c2.54,0,4.38-0.04,5.54-0.11l0.18,0.16v1.23l-0.18,0.18c-1.23,0.07-1.93,0.13-2.11,0.18
		c-0.35,0.1-0.55,0.32-0.61,0.67c-0.16,0.87-0.23,2.73-0.23,5.59v9.55c0,2.86,0.08,4.73,0.23,5.59c0.06,0.35,0.26,0.57,0.61,0.67
		c0.18,0.05,0.88,0.11,2.11,0.18l0.18,0.18V299.51z"/>
	<linearGradient id="SVGID_19_" gradientUnits="userSpaceOnUse" x1="250.472" y1="273.5948" x2="275.8759" y2="298.9988">
		<stop  offset="5.862826e-03" style="stop-color:#27A8E0"/>
		<stop  offset="0.4" style="stop-color:#00AEEF"/>
		<stop  offset="1" style="stop-color:#1C75BC"/>
	</linearGradient>
	<path class="st18" d="M277.78,275.51l-0.2,0.18c-1.23,0.07-1.93,0.13-2.11,0.18c-0.35,0.1-0.55,0.32-0.61,0.67
		c-0.16,0.87-0.23,2.73-0.23,5.59v7.33c0,5.4,0.08,8.92,0.23,10.55l-0.23,0.16c-1.36-0.23-2.39-0.39-3.08-0.49
		c-3.22-3.62-8.73-10.22-16.51-19.81v11.8c0,2.86,0.08,4.73,0.23,5.59c0.06,0.35,0.26,0.57,0.61,0.67c0.18,0.05,0.88,0.11,2.11,0.18
		l0.18,0.18v1.23l-0.18,0.16c-1.38-0.07-2.67-0.11-3.86-0.11c-1.38,0-2.77,0.04-4.17,0.11l-0.18-0.16v-1.23l0.18-0.18
		c1.23-0.07,1.93-0.13,2.11-0.18c0.35-0.1,0.55-0.32,0.61-0.67c0.16-0.87,0.23-2.73,0.23-5.59v-9.55c0-2.86-0.08-4.73-0.23-5.59
		c-0.06-0.35-0.26-0.57-0.61-0.67c-0.18-0.05-0.88-0.11-2.11-0.18l-0.18-0.18v-1.23l0.18-0.16c1.14,0.07,2.23,0.11,3.27,0.11
		c1.62,0,2.97-0.04,4.04-0.11c4.33,5.77,9.42,11.96,15.26,18.57v-10.56c0-2.86-0.08-4.73-0.23-5.59c-0.06-0.35-0.26-0.57-0.61-0.67
		c-0.18-0.05-0.88-0.11-2.11-0.18l-0.18-0.18v-1.23l0.18-0.16c1.35,0.07,2.63,0.11,3.84,0.11c1.55,0,2.95-0.04,4.19-0.11l0.18,0.16
		V275.51z"/>
	<linearGradient id="SVGID_20_" gradientUnits="userSpaceOnUse" x1="279.4847" y1="275.5216" x2="301.8307" y2="297.8676">
		<stop  offset="5.862826e-03" style="stop-color:#27A8E0"/>
		<stop  offset="0.4" style="stop-color:#00AEEF"/>
		<stop  offset="1" style="stop-color:#1C75BC"/>
	</linearGradient>
	<path class="st19" d="M300.59,293.55c-0.26,1.76-0.4,3.74-0.4,5.95l-0.18,0.18l-13.12-0.11c-2.19,0-3.73,0.04-4.64,0.11l-0.18-0.18
		V299l0.09-0.22c0.89-0.57,1.37-0.92,1.44-1.06c0.11-0.23,0.17-1.03,0.2-2.4l0.05-4.04v-9.15c0-2.86-0.08-4.73-0.23-5.59
		c-0.06-0.35-0.27-0.57-0.61-0.67c-0.18-0.05-0.88-0.11-2.11-0.18l-0.18-0.18v-1.23l0.18-0.16c1.21,0.07,3.09,0.11,5.63,0.11
		c2.26,0,6.56-0.04,12.9-0.11l0.2,0.14l-0.23,2c-0.07,0.64-0.13,1.18-0.16,1.62l-0.13,1.68l-0.18,0.2h-1.05l-0.18-0.18
		c-0.01-1.64-0.11-2.57-0.29-2.8c-0.13-0.17-0.78-0.3-1.94-0.4s-2.18-0.14-3.06-0.14c-1.05,0-2.1,0.04-3.18,0.13
		c-0.13,1.26-0.2,3.01-0.2,5.25v3.73c0.95,0.06,1.72,0.09,2.31,0.09l2.36-0.02c1.11-0.01,1.73-0.1,1.88-0.27
		c0.19-0.22,0.32-1.03,0.38-2.44l0.18-0.18h1.12l0.18,0.18c-0.05,1.35-0.07,2.58-0.07,3.7c0,1.21,0.02,2.54,0.07,3.99l-0.18,0.16
		h-1.21l-0.18-0.18c0-1.38-0.1-2.2-0.29-2.46c-0.19-0.26-0.78-0.43-1.75-0.51c-0.73-0.06-1.52-0.09-2.35-0.09
		c-0.88,0-1.7,0.03-2.45,0.09v5.5c0,1.58,0.03,3.1,0.09,4.58h2.45c3.51,0,5.67-0.14,6.46-0.41c0.13-0.05,0.23-0.11,0.29-0.2
		c0.12-0.17,0.23-0.53,0.34-1.08l0.43-2.24l0.18-0.2h1.1L300.59,293.55z"/>
	<linearGradient id="SVGID_21_" gradientUnits="userSpaceOnUse" x1="314.339" y1="273.4777" x2="341.1866" y2="300.3254">
		<stop  offset="5.862826e-03" style="stop-color:#27A8E0"/>
		<stop  offset="0.4" style="stop-color:#00AEEF"/>
		<stop  offset="1" style="stop-color:#1C75BC"/>
	</linearGradient>
	<path class="st20" d="M342,299.51l-0.18,0.18c-1.19-0.07-3.04-0.11-5.56-0.11c-2.57,0-4.43,0.04-5.56,0.11l-0.18-0.16v-1.23
		l0.2-0.18c1.23-0.07,1.93-0.13,2.11-0.18c0.35-0.1,0.55-0.32,0.61-0.67c0.16-0.87,0.23-2.73,0.23-5.59v-4.35
		c-0.61-0.06-2.56-0.09-5.85-0.09c-3.03,0-5.03,0.03-5.99,0.09v4.35c0,2.86,0.08,4.73,0.23,5.59c0.06,0.35,0.26,0.57,0.61,0.67
		c0.18,0.05,0.88,0.11,2.11,0.18l0.18,0.18v1.21l-0.16,0.18c-1.2-0.07-3.06-0.11-5.56-0.11c-2.59,0-4.44,0.04-5.56,0.11l-0.18-0.16
		v-1.23l0.18-0.18c1.23-0.07,1.93-0.13,2.11-0.18c0.35-0.1,0.55-0.32,0.61-0.67c0.16-0.87,0.23-2.73,0.23-5.59v-9.55
		c0-2.86-0.08-4.73-0.23-5.59c-0.06-0.35-0.27-0.57-0.61-0.67c-0.18-0.05-0.88-0.11-2.11-0.18l-0.18-0.18v-1.23l0.18-0.16
		c1.15,0.07,3.01,0.11,5.56,0.11c2.61,0,4.46-0.04,5.56-0.11l0.16,0.16v1.25l-0.18,0.16c-1.23,0.07-1.93,0.13-2.11,0.18
		c-0.35,0.1-0.55,0.32-0.61,0.67c-0.16,0.87-0.23,2.73-0.23,5.59v2.98c1.27,0.06,3.03,0.09,5.27,0.09c3.51,0,5.7-0.03,6.57-0.09
		v-2.98c0-2.86-0.08-4.73-0.23-5.59c-0.06-0.35-0.26-0.57-0.61-0.67c-0.18-0.05-0.88-0.11-2.11-0.18l-0.2-0.18v-1.23l0.18-0.16
		c1.17,0.07,3.02,0.11,5.56,0.11c2.62,0,4.47-0.04,5.56-0.11l0.18,0.16v1.25l-0.16,0.16c-1.25,0.07-1.96,0.13-2.13,0.18
		c-0.35,0.1-0.55,0.32-0.61,0.67c-0.16,0.87-0.23,2.73-0.23,5.59v9.55c0,2.86,0.08,4.73,0.23,5.59c0.06,0.35,0.26,0.57,0.61,0.67
		c0.18,0.05,0.88,0.11,2.11,0.18l0.18,0.18V299.51z"/>
	<linearGradient id="SVGID_22_" gradientUnits="userSpaceOnUse" x1="349.278" y1="277.1103" x2="368.9085" y2="296.7408">
		<stop  offset="5.862826e-03" style="stop-color:#27A8E0"/>
		<stop  offset="0.4" style="stop-color:#00AEEF"/>
		<stop  offset="1" style="stop-color:#1C75BC"/>
	</linearGradient>
	<path class="st21" d="M372.83,286.25c0,4.44-1.29,7.92-3.88,10.45c-2.51,2.45-5.95,3.68-10.3,3.68c-4.11,0-7.34-1.16-9.69-3.47
		c-2.35-2.31-3.52-5.54-3.52-9.66c0-5.79,2.21-9.79,6.62-12.02c2.01-1.01,4.48-1.52,7.42-1.52c4.2,0,7.46,1.1,9.8,3.3
		C371.65,279.25,372.83,282.33,372.83,286.25z M367.28,287.19c0-3.49-0.7-6.26-2.1-8.31c-1.4-2.05-3.46-3.08-6.16-3.08
		c-3.57,0-5.94,1.61-7.11,4.82c-0.6,1.65-0.9,3.49-0.9,5.54c0,3.72,0.69,6.65,2.06,8.81c1.42,2.23,3.54,3.34,6.37,3.34
		c3.43,0,5.73-1.69,6.91-5.07C366.96,291.44,367.28,289.42,367.28,287.19z"/>
	<linearGradient id="SVGID_23_" gradientUnits="userSpaceOnUse" x1="376.7845" y1="273.2891" x2="398.0927" y2="294.5973">
		<stop  offset="5.862826e-03" style="stop-color:#27A8E0"/>
		<stop  offset="0.4" style="stop-color:#00AEEF"/>
		<stop  offset="1" style="stop-color:#1C75BC"/>
	</linearGradient>
	<path class="st22" d="M399.03,274.23c-0.14,0.89-0.22,1.81-0.23,2.76l-0.04,3.01l-0.18,0.18h-1.14l-0.2-0.16
		c-0.06-1.54-0.13-2.44-0.2-2.71c-0.14-0.48-0.53-0.76-1.15-0.85c-0.24-0.04-1.37-0.05-3.39-0.05h-2.42
		c-0.02,0.42-0.04,2.09-0.04,5.02v10.25c0,2.86,0.08,4.73,0.23,5.59c0.06,0.35,0.26,0.57,0.61,0.67c0.18,0.05,0.88,0.11,2.11,0.18
		l0.18,0.18v1.21l-0.18,0.18c-1.19-0.07-3.04-0.11-5.56-0.11c-2.57,0-4.43,0.04-5.56,0.11l-0.16-0.16v-1.23l0.18-0.18
		c1.23-0.07,1.93-0.13,2.11-0.18c0.35-0.1,0.55-0.32,0.61-0.67c0.16-0.87,0.23-2.73,0.23-5.59v-10.25c0-2.97-0.02-4.64-0.05-5.02
		h-2.58c-2.15,0-3.41,0.07-3.77,0.2c-0.19,0.07-0.32,0.16-0.4,0.27c-0.11,0.19-0.2,0.58-0.27,1.15c-0.08,0.64-0.14,1.29-0.16,1.97
		l-0.18,0.18h-1.14l-0.2-0.18l-0.04-3.08c-0.01-0.87-0.08-1.76-0.22-2.69l0.16-0.18c0.71,0.12,3.3,0.18,7.76,0.18h7.31
		c4.11,0,6.7-0.06,7.76-0.18L399.03,274.23z"/>
	<linearGradient id="SVGID_24_" gradientUnits="userSpaceOnUse" x1="400.2754" y1="275.5216" x2="422.6215" y2="297.8676">
		<stop  offset="5.862826e-03" style="stop-color:#27A8E0"/>
		<stop  offset="0.4" style="stop-color:#00AEEF"/>
		<stop  offset="1" style="stop-color:#1C75BC"/>
	</linearGradient>
	<path class="st23" d="M421.38,293.55c-0.26,1.76-0.4,3.74-0.4,5.95l-0.18,0.18l-13.12-0.11c-2.19,0-3.73,0.04-4.64,0.11l-0.18-0.18
		V299l0.09-0.22c0.89-0.57,1.37-0.92,1.44-1.06c0.11-0.23,0.17-1.03,0.2-2.4l0.05-4.04v-9.15c0-2.86-0.08-4.73-0.23-5.59
		c-0.06-0.35-0.27-0.57-0.61-0.67c-0.18-0.05-0.88-0.11-2.11-0.18l-0.18-0.18v-1.23l0.18-0.16c1.21,0.07,3.09,0.11,5.63,0.11
		c2.26,0,6.56-0.04,12.9-0.11l0.2,0.14l-0.23,2c-0.07,0.64-0.13,1.18-0.16,1.62l-0.13,1.68l-0.18,0.2h-1.05l-0.18-0.18
		c-0.01-1.64-0.11-2.57-0.29-2.8c-0.13-0.17-0.78-0.3-1.94-0.4c-1.16-0.1-2.18-0.14-3.06-0.14c-1.05,0-2.1,0.04-3.18,0.13
		c-0.13,1.26-0.2,3.01-0.2,5.25v3.73c0.95,0.06,1.72,0.09,2.31,0.09l2.36-0.02c1.11-0.01,1.73-0.1,1.88-0.27
		c0.19-0.22,0.32-1.03,0.38-2.44l0.18-0.18h1.12l0.18,0.18c-0.05,1.35-0.07,2.58-0.07,3.7c0,1.21,0.02,2.54,0.07,3.99l-0.18,0.16
		h-1.21l-0.18-0.18c0-1.38-0.1-2.2-0.29-2.46c-0.19-0.26-0.78-0.43-1.75-0.51c-0.73-0.06-1.52-0.09-2.35-0.09
		c-0.88,0-1.7,0.03-2.45,0.09v5.5c0,1.58,0.03,3.1,0.09,4.58h2.45c3.51,0,5.67-0.14,6.46-0.41c0.13-0.05,0.23-0.11,0.29-0.2
		c0.12-0.17,0.23-0.53,0.34-1.08l0.43-2.24l0.18-0.2h1.1L421.38,293.55z"/>
	<linearGradient id="SVGID_25_" gradientUnits="userSpaceOnUse" x1="421.3903" y1="277.3888" x2="443.7363" y2="299.7348">
		<stop  offset="5.862826e-03" style="stop-color:#27A8E0"/>
		<stop  offset="0.4" style="stop-color:#00AEEF"/>
		<stop  offset="1" style="stop-color:#1C75BC"/>
	</linearGradient>
	<path class="st24" d="M444.36,293.55c-0.26,1.76-0.4,3.74-0.4,5.95l-0.18,0.18l-13.12-0.11c-2.19,0-3.73,0.04-4.64,0.11l-0.18-0.18
		V299l0.09-0.22c0.89-0.57,1.37-0.92,1.44-1.06c0.11-0.22,0.17-1.02,0.2-2.4l0.05-4.04v-9.15c0-2.86-0.08-4.73-0.23-5.59
		c-0.06-0.35-0.27-0.57-0.61-0.67c-0.18-0.05-0.88-0.11-2.11-0.18l-0.18-0.18v-1.23l0.18-0.16c1.24,0.07,3.05,0.11,5.45,0.11
		c2.48,0,4.36-0.04,5.65-0.11l0.18,0.16v1.25l-0.18,0.16c-1.23,0.07-1.93,0.13-2.11,0.18c-0.35,0.1-0.55,0.32-0.61,0.67
		c-0.16,0.87-0.23,2.73-0.23,5.59v10.79c0,1.58,0.03,3.1,0.09,4.58h2.45c3.51,0,5.67-0.14,6.46-0.41c0.13-0.05,0.23-0.11,0.29-0.2
		c0.12-0.17,0.23-0.53,0.34-1.08l0.43-2.24l0.18-0.2h1.1L444.36,293.55z"/>
</g>
</svg>
